<svg xmlns="http://www.w3.org/2000/svg" viewBox="0 0 256 256">
  <rect width="256" height="256" rx="52" fill="#18384a" />
  <path
    d="M54 62c0-10 8-18 18-18h48c17 0 30 4 40 12 10-8 23-12 40-12h2c10 0 18 8 18 18v130c0 11-9 20-20 20h-40c-15 0-28 5-37 14l-3 3-3-3c-9-9-22-14-37-14H74c-11 0-20-9-20-20V62Z"
    fill="#f7f1e3"
  />
  <path
    d="M128 70v138M82 82h30M82 108h30M82 134h30M144 82h30M144 108h30M144 134h30"
    fill="none"
    stroke="#18384a"
    stroke-linecap="round"
    stroke-linejoin="round"
    stroke-width="12"
  />
</svg>
